HIERARCHY
ROOT Hips
{
  OFFSET -35.4901 99.2528 17.4586
  CHANNELS 6 Xposition Yposition Zposition Zrotation Xrotation Yrotation
  JOINT LeftUpLeg
  {
    OFFSET 8.64259 1.95398 -2.38835
    CHANNELS 3 Zrotation Xrotation Yrotation
    JOINT LeftLeg
    {
      OFFSET 43.7702 0 0
      CHANNELS 3 Zrotation Xrotation Yrotation
      JOINT LeftFoot
      {
        OFFSET 40.6238 0 0
        CHANNELS 3 Zrotation Xrotation Yrotation
        JOINT LeftToeBase
        {
          OFFSET 12.7242 0 0
          CHANNELS 3 Zrotation Xrotation Yrotation
          End Site
          {
            OFFSET 0 0 0
          }
        }
      }
    }
  }
  JOINT RightUpLeg
  {
    OFFSET -8.2249 1.95398 -2.59336
    CHANNELS 3 Zrotation Xrotation Yrotation
    JOINT RightLeg
    {
      OFFSET 43.5653 0 0
      CHANNELS 3 Zrotation Xrotation Yrotation
      JOINT RightFoot
      {
        OFFSET 40.6238 0 0
        CHANNELS 3 Zrotation Xrotation Yrotation
        JOINT RightToeBase
        {
          OFFSET 12.7242 0 0
          CHANNELS 3 Zrotation Xrotation Yrotation
          End Site
          {
            OFFSET 0 0 0
          }
        }
      }
    }
  }
  JOINT Spine
  {
    OFFSET 0.165834 0.87714 6.61349
    CHANNELS 3 Zrotation Xrotation Yrotation
    JOINT Spine1
    {
      OFFSET 7.38963 1.71661e-005 0
      CHANNELS 3 Zrotation Xrotation Yrotation
      JOINT Spine2
      {
        OFFSET 11.9445 1.14441e-005 0
        CHANNELS 3 Zrotation Xrotation Yrotation
        JOINT Spine3
        {
          OFFSET 14.7254 4.19617e-005 0
          CHANNELS 3 Zrotation Xrotation Yrotation
          JOINT Spine4
          {
            OFFSET 10.9679 0 0
            CHANNELS 3 Zrotation Xrotation Yrotation
            JOINT RightShoulder
            {
              OFFSET 2.46616 -1.6653 3.69651
              CHANNELS 3 Zrotation Xrotation Yrotation
              JOINT RightArm
              {
                OFFSET 13.0012 0 0
                CHANNELS 3 Zrotation Xrotation Yrotation
                JOINT RightForeArm
                {
                  OFFSET 28.7848 1.52588e-005 0
                  CHANNELS 3 Zrotation Xrotation Yrotation
                  JOINT RightHand
                  {
                    OFFSET 26.5688 1.52588e-005 0
                    CHANNELS 3 Zrotation Xrotation Yrotation
                    End Site
                    {
                      OFFSET 0 0 0
                    }
                  }
                }
              }
            }
            JOINT LeftShoulder
            {
              OFFSET 2.38034 -1.29275 -3.7523
              CHANNELS 3 Zrotation Xrotation Yrotation
              JOINT LeftArm
              {
                OFFSET 16.3182 6.10351e-005 0
                CHANNELS 3 Zrotation Xrotation Yrotation
                JOINT LeftForeArm
                {
                  OFFSET 27.0901 0 0
                  CHANNELS 3 Zrotation Xrotation Yrotation
                  JOINT LeftHand
                  {
                    OFFSET 24.5451 1.52588e-005 0
                    CHANNELS 3 Zrotation Xrotation Yrotation
                    End Site
                    {
                      OFFSET 0 0 0
                    }
                  }
                }
              }
            }
            JOINT Neck
            {
              OFFSET 5.0226 -0.0266342 0
              CHANNELS 3 Zrotation Xrotation Yrotation
              JOINT Head
              {
                OFFSET 6.69364 2.86102e-005 0
                CHANNELS 3 Zrotation Xrotation Yrotation
                End Site
                {
                  OFFSET 0 0 0
                }
              }
            }
          }
        }
      }
    }
  }
}
MOTION
Frames:	9
Frame Time:	0.0416667
-8832.58 382.973 8212.59 105.592 67.7076 76.2619 -163.896 55.323 79.0643 -3.5534 29.888 -6.38817 10.814 -16.0804 -35.5841 1.326 16.2521 -14.7032 130.97 -71.6548 46.103 -4.55731 -7.06436 2.99332 98.8641 18.6822 0.0479006 14.2498 -15.8087 31.6593 -2.36802 6.93976 -89.6683 13.0286 -4.54169 1.21931 1.36484 -4.48361 1.41837 -21.2343 -4.69773 -0.205026 -1.22161 -4.69771 -0.205023 97.8486 -19.4422 -92.7483 61.5606 -5.47623 -3.54232 -175.691 11.5123 179.998 15.5341 -4.25296 -47.6775 -76.107 -51.5982 99.6715 -22.6981 -1.39095 -0.131574 6.89288 42.8901 -24.6791 13.5987 0.988378 3.30962 13.0426 -0.361417 1.32041 -21.311 -0.167537 -3.07838 
-8647.86 390.409 8085.92 102.484 57.4755 78.3876 -179.95 41.2501 114.013 -1.62606 21.036 -10.9043 25.6135 -24.2044 -38.9371 1.83799 16.4912 -15.1198 134.457 -47.9348 29.7737 -4.26558 -23.633 1.20132 102.725 22.0081 0.0586048 15.3515 -15.6964 32.0314 -1.65126 7.56656 -89.6563 11.7581 -3.12276 1.0134 0.0904643 -3.07515 1.14997 -22.4751 -3.28283 0.0270386 -2.46242 -3.28283 0.0270347 97.0055 -18.6339 -95.0065 61.0837 -4.68089 -6.73602 -178.557 11.8814 -179.61 -0.213503 -0.19871 -55.7397 -75.8942 -50.7956 100.011 -25.4815 2.39622 -10.9081 0.167998 22.0923 -23.3535 9.05739 1.53278 11.5304 15.2739 1.0615 1.56176 -17.6802 1.02483 -2.98674 
-8447.99 389.561 7931.1 98.3366 50.6526 83.6221 -178.841 11.5453 135.07 -2.34822 15.6571 -13.8371 57.183 -33.1949 -37.2922 1.62281 15.501 -14.0351 165.364 -8.4455 35.6359 -5.31359 -18.4206 0.696784 77.8343 34.7273 13.9854 8.78947 -15.2578 28.1661 -1.1819 7.90808 -89.7915 11.0655 -2.25589 0.632029 -0.603749 -2.22589 0.73074 -23.1545 -2.34148 -0.0755369 -3.14186 -2.34149 -0.0755387 96.045 -18.9575 -97.2912 60.1913 -4.22585 -8.17983 179.112 22.8267 -178.552 -8.50897 5.68313 -80.4117 -76.6655 -48.6683 98.886 -26.9741 5.20887 -19.1256 -0.397792 17.1293 -26.3575 13.315 1.73013 6.52104 16.3644 1.94365 -0.0527532 -14.8037 2.22248 -2.76598 
-8261.56 381.977 7750.47 97.0937 45.753 86.6388 -164.325 -22.9041 143.243 -1.9141 16.1127 -14.9952 99.6841 -31.2196 -22.0107 1.44102 15.2892 -13.7667 -173.823 36.9273 46.2062 -7.31792 -15.583 0.914887 42.2254 26.3502 22.0113 9.2135 -13.4618 25.1149 -0.700586 8.02227 -89.9956 10.8307 -1.39293 0.138892 -0.839477 -1.38544 0.20006 -23.3805 -1.37025 -0.286246 -3.36781 -1.37025 -0.286247 95.9919 -19.2529 -97.3341 59.9055 -2.9666 -7.1188 -26.5566 -63.4478 -36.4338 -39.05 10.7956 -27.4535 -77.3237 -47.944 97.8758 -27.049 5.73262 -24.32 9.53305 26.684 -37.6245 6.60925 0.482829 3.15431 16.4728 1.86586 -1.27526 -13.3415 2.48167 -3.04012 
-8097 393.851 7563.56 95.4846 43.1424 90.0132 -150.662 -42.9883 145.833 -0.519827 16.971 -15.333 120.227 -18.6397 -16.9051 2.65181 14.9442 -13.7963 -177.243 64.9855 62.1142 -3.47911 -18.8981 10.8277 32.3709 16.8574 7.2219 15.626 -15.2348 31.3164 -0.330842 8.04693 -90.2384 10.7786 -0.768744 -0.402869 -0.892171 -0.785723 -0.368648 -23.4281 -0.612137 -0.61528 -3.41543 -0.612119 -0.615283 96.2678 -19.507 -96.5893 60.2233 -1.53397 -5.76229 -6.34953 -37.3064 -23.9861 -27.0272 -0.929813 -5.08383 -77.6726 -46.9653 97.3315 -27.2411 7.78816 -29.5838 13.9012 29.9108 -42.8653 6.64139 0.43067 2.23498 17.0176 1.24242 -2.24808 -13.1642 2.24741 -3.96923 
-7980.52 411.766 7402.75 94.4696 42.5894 91.8473 -143.396 -50.7857 146.545 -0.504318 17.2526 -15.63 127.929 -10.1572 -17.5888 2.17528 15.7308 -14.4521 164.666 74.7083 85.0932 -1.20921 -15.137 15.7432 31.7978 9.27829 3.24037 14.972 -14.9635 30.4507 -0.273473 7.99064 -90.3961 10.8903 -0.727552 -0.71878 -0.780582 -0.758484 -0.686069 -23.315 -0.477902 -0.904204 -3.30237 -0.477903 -0.904202 96.0154 -20.2298 -96.9954 60.1129 0.291133 -4.45475 -5.8747 -38.3708 -22.6887 -20.4438 -1.35178 -1.71276 -77.7528 -47.1039 97.2069 -26.7443 8.67099 -31.9762 18.4176 33.0638 -47.2016 5.87978 0.44067 2.93224 16.9496 1.42898 -2.63854 -12.6135 2.57273 -4.51764 
-7910.64 385.309 7306.45 95.2519 43.0105 92.1243 -136.201 -54.6569 151.814 -1.39649 18.2583 -15.2477 130.842 -7.02618 -18.5904 3.27248 16.1238 -15.2352 162.239 72.5828 90.8415 -2.06219 -16.4481 13.8322 25.7759 11.1618 4.06986 15.5229 -14.6411 30.1251 -0.296148 7.97879 -90.6116 10.9094 -0.872445 -1.13498 -0.761697 -0.921527 -1.09549 -23.2938 -0.491024 -1.34468 -3.28112 -0.491019 -1.34468 95.9916 -20.4986 -96.9842 60.1142 1.66895 -3.16375 -5.26312 -39.0319 -20.2444 -17.6245 -1.62456 1.39001 -78.084 -47.4955 96.69 -26.8708 8.90697 -31.4904 19.5975 36.2018 -46.8958 3.97165 0.267845 2.11939 16.4673 1.51236 -2.08652 -12.4106 2.46712 -4.41059 
-7854 362.661 7232.42 96.5632 45.9379 92.2631 -129.331 -53.8226 158.512 -3.50676 22.384 -9.39417 124.63 -8.5382 -17.1287 8.45751 19.5298 -20.9418 168.803 68.1964 86.4874 -4.96541 -18.9184 5.97789 16.5974 17.4172 13.2655 11.9975 -15.4479 29.8481 -0.562367 8.02544 -90.9264 10.8109 -1.54744 -1.69822 -0.860183 -1.62066 -1.62848 -23.3899 -0.96564 -2.08464 -3.37723 -0.965635 -2.08465 96.2709 -20.3231 -96.3585 59.7833 2.44099 -3.11164 -3.63232 -40.176 -16.2192 -16.0216 -1.35659 -0.231847 -77.9008 -47.1483 96.9736 -27.9014 9.09163 -28.5517 17.9709 40.8 -42.8849 2.56527 0.254931 3.66523 17.504 1.53194 -1.12087 -13.7216 2.14982 -3.21743 
-7785.33 368.56 7145.8 99.1144 47.379 89.0687 -125.215 -55.0352 161.092 -6.15999 30.6024 -1.22236 102.108 -13.0561 -17.0442 11.7965 21.0494 -24.2492 174.926 63.1328 78.3772 -6.16338 -20.2635 3.13071 17.7164 19.0746 15.8688 12.5083 -15.6499 30.4639 -0.63571 8.09192 -90.8867 10.6759 -1.67445 -1.61007 -0.99488 -1.74366 -1.53484 -23.5265 -1.11324 -2.03877 -3.51384 -1.11327 -2.03877 96.1639 -19.8651 -96.7407 59.5867 3.02089 -3.27557 -2.47708 -40.0678 -14.2456 -15.3969 -1.42802 0.938013 -77.8936 -47.2934 96.9858 -29.017 8.07566 -24.2108 9.79015 41.5048 -31.9406 2.11316 0.209869 3.28861 17.2279 1.54237 -0.259908 -13.6613 1.87243 -2.88045 
